# xmcd
#
# Track frame offsets: 
#        150
#        14204
#        29999
#        42707
#        62934
#        78082
#        94124
#        107835
#        125283
#        136606
#
# Disc length: 2040 seconds
#
# Revision: 0
# Processed by: cddbd v1.5.1PL0 Copyright (c) Steve Scherf et al.
# Submitted via: ExactAudioCopy v0.95a5
#
DISCID=8c07f60a
DTITLE=Marty Slayton - Plan B
DYEAR=2003
DGENRE=Country
TTITLE0=Plan B
TTITLE1=I Didn't Want To See Him
TTITLE2=Just About Every Night
TTITLE3=Which Five Years?
TTITLE4=The Next Big Thing
TTITLE5=The Me Without You
TTITLE6=I'm Sure
TTITLE7=Anytime I Want To
TTITLE8=It Just Hits Ya
TTITLE9=It Hurts Like Love
EXTD=
EXTT0=
EXTT1=
EXTT2=
EXTT3=
EXTT4=
EXTT5=
EXTT6=
EXTT7=
EXTT8=
EXTT9=
PLAYORDER=
